<svg width="24" height="24" viewBox="0 0 24 24" fill="none" xmlns="http://www.w3.org/2000/svg">
  <path d="M20.6177 2L13.0445 8.1282L14.5133 4.51786L20.6177 2Z" fill="#E2761B" stroke="#E2761B" stroke-linecap="round" stroke-linejoin="round"/>
  <path d="M3.37589 2L10.8827 8.19509L9.48707 4.51786L3.37589 2Z" fill="#E4761B" stroke="#E4761B" stroke-linecap="round" stroke-linejoin="round"/>
  <path d="M17.8386 16.3464L15.7297 19.7661L20.1907 21.1L21.4782 16.4196L17.8386 16.3464Z" fill="#E4761B" stroke="#E4761B" stroke-linecap="round" stroke-linejoin="round"/>
  <path d="M2.53027 16.4196L3.81091 21.1L8.27187 19.7661L6.163 16.3464L2.53027 16.4196Z" fill="#E4761B" stroke="#E4761B" stroke-linecap="round" stroke-linejoin="round"/>
  <path d="M7.98781 10.593L6.72388 12.6507L11.1579 12.8703L11.0048 8.10474L7.98781 10.593Z" fill="#E4761B" stroke="#E4761B" stroke-linecap="round" stroke-linejoin="round"/>
  <path d="M16.0058 10.593L12.9352 8.03784L12.8357 12.8703L17.2697 12.6507L16.0058 10.593Z" fill="#E4761B" stroke="#E4761B" stroke-linecap="round" stroke-linejoin="round"/>
  <path d="M8.27187 19.7661L10.8962 18.3723L8.63882 16.4531L8.27187 19.7661Z" fill="#E4761B" stroke="#E4761B" stroke-linecap="round" stroke-linejoin="round"/>
  <path d="M13.0974 18.3723L15.7297 19.7661L15.3548 16.4531L13.0974 18.3723Z" fill="#E4761B" stroke="#E4761B" stroke-linecap="round" stroke-linejoin="round"/>
  <path d="M15.7297 19.7661L13.0974 18.3723L13.3102 20.2915L13.2834 21.0335L15.7297 19.7661Z" fill="#D7C1B3" stroke="#D7C1B3" stroke-linecap="round" stroke-linejoin="round"/>
  <path d="M8.27187 19.7661L10.7182 21.0335L10.6993 20.2915L10.8962 18.3723L8.27187 19.7661Z" fill="#D7C1B3" stroke="#D7C1B3" stroke-linecap="round" stroke-linejoin="round"/>
  <path d="M10.7644 15.2088L8.58228 14.4668L10.1238 13.6851L10.7644 15.2088Z" fill="#233447" stroke="#233447" stroke-linecap="round" stroke-linejoin="round"/>
  <path d="M13.2292 15.2088L13.8698 13.6851L15.4192 14.4668L13.2292 15.2088Z" fill="#233447" stroke="#233447" stroke-linecap="round" stroke-linejoin="round"/>
  <path d="M8.27187 19.7661L8.65773 16.3464L6.163 16.4196L8.27187 19.7661Z" fill="#CD6116" stroke="#CD6116" stroke-linecap="round" stroke-linejoin="round"/>
  <path d="M15.3423 16.3464L15.7297 19.7661L17.8386 16.4196L15.3423 16.3464Z" fill="#CD6116" stroke="#CD6116" stroke-linecap="round" stroke-linejoin="round"/>
  <path d="M17.2697 12.6507L12.8357 12.8703L13.2369 15.2088L13.8775 13.6851L15.4269 14.4668L17.2697 12.6507Z" fill="#CD6116" stroke="#CD6116" stroke-linecap="round" stroke-linejoin="round"/>
  <path d="M8.58228 14.4668L10.1317 13.6851L10.7644 15.2088L11.1579 12.8703L6.72388 12.6507L8.58228 14.4668Z" fill="#CD6116" stroke="#CD6116" stroke-linecap="round" stroke-linejoin="round"/>
  <path d="M6.72388 12.6507L8.63882 16.4531L8.58228 14.4668L6.72388 12.6507Z" fill="#E4751F" stroke="#E4751F" stroke-linecap="round" stroke-linejoin="round"/>
  <path d="M15.4269 14.4668L15.3548 16.4531L17.2697 12.6507L15.4269 14.4668Z" fill="#E4751F" stroke="#E4751F" stroke-linecap="round" stroke-linejoin="round"/>
  <path d="M11.1579 12.8703L10.7644 15.2088L11.2509 18.0796L11.3662 14.2472L11.1579 12.8703Z" fill="#E4751F" stroke="#E4751F" stroke-linecap="round" stroke-linejoin="round"/>
  <path d="M12.8357 12.8703L12.6353 14.2338L12.7427 18.0796L13.2369 15.2088L12.8357 12.8703Z" fill="#E4751F" stroke="#E4751F" stroke-linecap="round" stroke-linejoin="round"/>
  <path d="M13.2369 15.2088L12.7427 18.0796L13.0974 18.3723L15.3548 16.4531L15.4269 14.4668L13.2369 15.2088Z" fill="#F6851B" stroke="#F6851B" stroke-linecap="round" stroke-linejoin="round"/>
  <path d="M8.58228 14.4668L8.63882 16.4531L10.8962 18.3723L11.2509 18.0796L10.7644 15.2088L8.58228 14.4668Z" fill="#F6851B" stroke="#F6851B" stroke-linecap="round" stroke-linejoin="round"/>
  <path d="M13.2834 21.0335L13.3102 20.2915L13.1098 20.1183H10.8838L10.6993 20.2915L10.7182 21.0335L8.27187 19.7661L9.26561 20.5815L10.8598 21.7288H13.1338L14.728 20.5815L15.7297 19.7661L13.2834 21.0335Z" fill="#C0AD9E" stroke="#C0AD9E" stroke-linecap="round" stroke-linejoin="round"/>
  <path d="M13.0974 18.3723L12.7427 18.0796H11.2509L10.8962 18.3723L10.6993 20.2915L10.8838 20.1183H13.1098L13.3102 20.2915L13.0974 18.3723Z" fill="#161616" stroke="#161616" stroke-linecap="round" stroke-linejoin="round"/>
  <path d="M20.9538 8.46741L21.6 4.95728L20.6177 2L13.0974 7.89861L16.0058 10.593L20.0901 11.9401L21.0091 10.8396L20.5912 10.5335L21.2374 9.90817L20.7283 9.50551L21.3745 8.98298L20.9538 8.46741Z" fill="#763D16" stroke="#763D16" stroke-linecap="round" stroke-linejoin="round"/>
  <path d="M2.4 4.95728L3.04622 8.46741L2.61863 8.98298L3.26485 9.50551L2.76261 9.90817L3.40883 10.5335L2.99094 10.8396L3.90989 11.9401L7.99417 10.593L10.9026 7.89861L3.38228 2L2.4 4.95728Z" fill="#763D16" stroke="#763D16" stroke-linecap="round" stroke-linejoin="round"/>
  <path d="M20.0901 11.9401L16.0058 10.593L17.2697 12.6507L15.3548 16.4531L17.8386 16.4196H21.4782L20.0901 11.9401Z" fill="#F6851B" stroke="#F6851B" stroke-linecap="round" stroke-linejoin="round"/>
  <path d="M7.99417 10.593L3.90989 11.9401L2.53027 16.4196H6.163L8.63882 16.4531L6.72388 12.6507L7.99417 10.593Z" fill="#F6851B" stroke="#F6851B" stroke-linecap="round" stroke-linejoin="round"/>
  <path d="M12.8357 12.8703L13.0974 7.89861L14.5133 4.51786H9.48707L10.9026 7.89861L11.1579 12.8703L11.243 14.2606L11.2509 18.0796H12.7427L12.7506 14.2606L12.8357 12.8703Z" fill="#F6851B" stroke="#F6851B" stroke-linecap="round" stroke-linejoin="round"/>
</svg> 